# xmcd
#
# Track frame offsets:
#	150
#	14632
#	28447
#	44485
#	64728
#	79143
#	98275
#	112081
#	130110
#	148002
#	165572
#	197031
#
# Disc length: 2924 seconds
#
# Revision: 0
# Processed by: cddbd v1.4b42PL0 Copyright (c) Steve Scherf et al.
# Submitted via: EasyCDDAExtractor 4.5.0.1
#
DISCID=a70b6a0c
DTITLE=Mindy McCready - If I Don't Stay The Night
DYEAR=1997
DGENRE=country
TTITLE0=What If I Do
TTITLE1=This is Me
TTITLE2=If I Don't Stay The Night
TTITLE3=Cross Against The Moon
TTITLE4=For a Good Time Call
TTITLE5=Oh Romeo
TTITLE6=The Other Side Of This Kiss
TTITLE7=You'll Never Know
TTITLE8=Fine Art Of Holding A Woman
TTITLE9=Only A Whisper
TTITLE10=Long, Long Time
TTITLE11=Info
EXTD=
EXTT0=
EXTT1=
EXTT2=
EXTT3=
EXTT4=
EXTT5=
EXTT6=
EXTT7=
EXTT8=
EXTT9=
EXTT10=
EXTT11=
PLAYORDER=
